<svg id="Layer_1" data-name="Layer 1" xmlns="http://www.w3.org/2000/svg" viewBox="0 0 41.01 41.3"><defs><style>.cls-1{fill:#606161;}</style></defs><title>logo_reminder</title><path id="ic_alarm_24px" data-name="ic alarm 24px" class="cls-1" d="M318,407.76l-9.44-7.91L305.93,403l9.43,7.91Zm-29-4.77-2.62-3.14L277,407.74l2.65,3.14Zm9.48,9.45h-3.08v12.3l9.74,5.85,1.54-2.52-8.2-4.86Zm-1-8.2A18.46,18.46,0,1,0,316,422.7h0a18.46,18.46,0,0,0-18.46-18.45Zm0,32.81a14.36,14.36,0,1,1,14.35-14.36,14.37,14.37,0,0,1-14.35,14.36Z" transform="translate(-276.99 -399.85)"/></svg>