<svg id="Layer_1" data-name="Layer 1" xmlns="http://www.w3.org/2000/svg" viewBox="0 0 41.54 41.31"><defs><style>.cls-1{fill:#606161;}</style></defs><title>icon_fix</title><path id="ic_build_24px" data-name="ic build 24px" class="cls-1" d="M317.86,434.06,300.7,416.9a12.08,12.08,0,0,0-2.83-13,12.46,12.46,0,0,0-13.95-2.45l8.11,8.11-5.66,5.66-8.3-8.11a12.33,12.33,0,0,0,15.47,16.78L310.7,441a1.82,1.82,0,0,0,2.58.06l.06-.06,4.34-4.33a1.7,1.7,0,0,0,.42-2.37,1.55,1.55,0,0,0-.24-.27Z" transform="translate(-276.87 -400.29)"/></svg>