<svg xmlns="http://www.w3.org/2000/svg" viewBox="0 0 108.65 31.84"><defs><style>.cls-1,.cls-2,.cls-3{fill:#fff;}.cls-1{opacity:0.3;}.cls-2{opacity:0.8;}</style></defs><title>nebula_01_white_text</title><g id="Layer_2" data-name="Layer 2"><g id="Layer_8" data-name="Layer 8"><path class="cls-1" d="M15.38,18.1a2.52,2.52,0,0,1-2.51-4.36L24.48,7A2.51,2.51,0,0,1,27,11.39Z"/><path class="cls-1" d="M3.77,11.39A2.51,2.51,0,1,1,1.26,7L12.87.34a2.51,2.51,0,1,1,2.51,4.35Z"/><path class="cls-1" d="M15.38,31.5a2.51,2.51,0,1,1-2.51-4.35l11.61-6.7A2.51,2.51,0,1,1,27,24.8Z"/><path class="cls-1" d="M3.77,24.8a2.51,2.51,0,0,1-2.51-4.35l11.61-6.71a2.52,2.52,0,0,1,2.51,4.36Z"/><path class="cls-1" d="M16.64,15.92a2.52,2.52,0,0,1-5,0V2.51a2.52,2.52,0,0,1,5,0Z"/><path class="cls-1" d="M28.25,22.62a2.52,2.52,0,1,1-5,0V9.22a2.52,2.52,0,1,1,5,0Z"/><path class="cls-1" d="M5,22.79a2.52,2.52,0,1,1-5,0V9.39a2.52,2.52,0,1,1,5,0Z"/><path class="cls-1" d="M16.64,29.33a2.52,2.52,0,0,1-5,0V15.92a2.52,2.52,0,0,1,5,0Z"/><path class="cls-1" d="M15.38,13.74a2.52,2.52,0,0,1-2.51,4.36L1.26,11.39A2.51,2.51,0,0,1,3.77,7Z"/><path class="cls-1" d="M27,7a2.51,2.51,0,1,1-2.51,4.35L12.87,4.69A2.51,2.51,0,0,1,15.38.34Z"/><path class="cls-1" d="M15.38,27.15a2.51,2.51,0,0,1-2.51,4.35L1.26,24.8a2.51,2.51,0,0,1,2.51-4.35Z"/><path class="cls-1" d="M27,20.45a2.51,2.51,0,0,1-2.51,4.35L12.87,18.1a2.52,2.52,0,0,1,2.51-4.36Z"/><path class="cls-2" d="M28.25,22.62a2.52,2.52,0,1,1-5,0V9.22a2.52,2.52,0,1,1,5,0Z"/><path class="cls-2" d="M16.64,29.33a2.52,2.52,0,0,1-5,0V15.92a2.52,2.52,0,0,1,5,0Z"/><path class="cls-2" d="M27,20.45a2.51,2.51,0,0,1-2.51,4.35L12.87,18.1a2.52,2.52,0,0,1,2.51-4.36Z"/><path class="cls-3" d="M50.31,13.41a4.39,4.39,0,0,1,.95,3.05v5.46h-.72V16.5a3.84,3.84,0,0,0-.77-2.58A2.7,2.7,0,0,0,47.64,13a2.83,2.83,0,0,0-2.25,1,4.42,4.42,0,0,0-.85,2.92v5h-.71V12.57h.71V15a3.41,3.41,0,0,1,1.22-2,3.35,3.35,0,0,1,2.07-.67A3.22,3.22,0,0,1,50.31,13.41Z"/><path class="cls-3" d="M62.31,20.67a3,3,0,0,0,1.08-2h.75a3.86,3.86,0,0,1-1.3,2.41,4,4,0,0,1-2.69.91A4.1,4.1,0,0,1,58,21.47,4,4,0,0,1,56.5,19.8,5.68,5.68,0,0,1,56,17.24a5.64,5.64,0,0,1,.54-2.55A4,4,0,0,1,58,13a4.1,4.1,0,0,1,2.16-.57,4,4,0,0,1,2.17.57,3.74,3.74,0,0,1,1.38,1.52,4.5,4.5,0,0,1,.47,2,6,6,0,0,1-.08.91H56.68a4.59,4.59,0,0,0,.5,2.2A3.14,3.14,0,0,0,58.43,21a3.62,3.62,0,0,0,3.88-.29Zm-3.87-7.15a3.13,3.13,0,0,0-1.26,1.31,4.42,4.42,0,0,0-.5,2.16h6.79a4.18,4.18,0,0,0-.4-2.17,3,3,0,0,0-1.24-1.31,3.59,3.59,0,0,0-3.39,0Z"/><path class="cls-3" d="M75.5,13A3.9,3.9,0,0,1,77,14.69a5.78,5.78,0,0,1,.52,2.55A5.81,5.81,0,0,1,77,19.79a3.93,3.93,0,0,1-1.45,1.68,4,4,0,0,1-2.14.57,3.58,3.58,0,0,1-2.37-.8,4,4,0,0,1-1.32-2.11v2.79H69V9.17h.7v6.19A4,4,0,0,1,71,13.25a3.58,3.58,0,0,1,2.37-.8A4,4,0,0,1,75.5,13Zm-4.1.62a3.43,3.43,0,0,0-1.27,1.44,4.77,4.77,0,0,0-.46,2.16,4.83,4.83,0,0,0,.46,2.16,3.37,3.37,0,0,0,1.27,1.44,3.33,3.33,0,0,0,1.82.51,3.23,3.23,0,0,0,2.58-1.1,4.42,4.42,0,0,0,1-3,4.39,4.39,0,0,0-1-3,3.23,3.23,0,0,0-2.58-1.1A3.41,3.41,0,0,0,71.4,13.64Z"/><path class="cls-3" d="M89.41,12.57v9.35h-.72V19.47a3.26,3.26,0,0,1-3.29,2.64,3.17,3.17,0,0,1-2.46-1A4.41,4.41,0,0,1,82,18V12.57h.7V18a3.8,3.8,0,0,0,.77,2.56,2.7,2.7,0,0,0,2.13.89,2.8,2.8,0,0,0,2.25-1,4.37,4.37,0,0,0,.85-2.92v-5Z"/><path class="cls-3" d="M95.33,9.17V21.92h-.72V9.17Z"/><path class="cls-3" d="M106.62,13.25a4,4,0,0,1,1.31,2.11V12.57h.72v9.35h-.72V19.13a4,4,0,0,1-1.31,2.11,3.59,3.59,0,0,1-2.38.8,4,4,0,0,1-2.14-.57,3.93,3.93,0,0,1-1.45-1.68,5.81,5.81,0,0,1-.52-2.55,5.78,5.78,0,0,1,.52-2.55A3.9,3.9,0,0,1,102.1,13a4,4,0,0,1,2.14-.57A3.59,3.59,0,0,1,106.62,13.25Zm-4.8,1a4.39,4.39,0,0,0-1,3,4.42,4.42,0,0,0,1,3,3.22,3.22,0,0,0,2.59,1.1,3.33,3.33,0,0,0,3.08-2,5,5,0,0,0,.45-2.16,4.9,4.9,0,0,0-.45-2.16,3.3,3.3,0,0,0-3.08-1.94A3.23,3.23,0,0,0,101.82,14.24Z"/></g></g></svg>